<svg width="15" height="16" viewBox="0 0 15 16" fill="none" xmlns="http://www.w3.org/2000/svg">
<path d="M7.5 0.484863C3.3675 0.484863 0 3.85236 0 7.98486C0 12.1174 3.3675 15.4849 7.5 15.4849C11.6325 15.4849 15 12.1174 15 7.98486C15 3.85236 11.6325 0.484863 7.5 0.484863ZM10.02 9.70986C10.2375 9.92736 10.2375 10.2874 10.02 10.5049C9.9075 10.6174 9.765 10.6699 9.6225 10.6699C9.48 10.6699 9.3375 10.6174 9.225 10.5049L7.5 8.77986L5.775 10.5049C5.6625 10.6174 5.52 10.6699 5.3775 10.6699C5.235 10.6699 5.0925 10.6174 4.98 10.5049C4.7625 10.2874 4.7625 9.92736 4.98 9.70986L6.705 7.98486L4.98 6.25986C4.7625 6.04236 4.7625 5.68236 4.98 5.46486C5.1975 5.24736 5.5575 5.24736 5.775 5.46486L7.5 7.18986L9.225 5.46486C9.4425 5.24736 9.8025 5.24736 10.02 5.46486C10.2375 5.68236 10.2375 6.04236 10.02 6.25986L8.295 7.98486L10.02 9.70986Z" fill="#458FFF"/>
</svg>
